<svg xmlns="http://www.w3.org/2000/svg" xmlns:xlink="http://www.w3.org/1999/xlink" width="1366" zoomAndPan="magnify" viewBox="0 0 1024.5 576" height="768" preserveAspectRatio="xMidYMid meet" version="1.0"><defs><g/><clipPath id="6708bc6edc"><path d="M 0 0.140625 L 1024 0.140625 L 1024 575.859375 L 0 575.859375 Z M 0 0.140625 " clip-rule="nonzero"/></clipPath><clipPath id="aa6f5aa57f"><path d="M 472.339844 120.03125 L 551.800781 120.03125 L 551.800781 199.492188 L 472.339844 199.492188 Z M 472.339844 120.03125 " clip-rule="nonzero"/></clipPath></defs><g clip-path="url(#6708bc6edc)"><path fill="#ffffff" d="M 0 0.140625 L 1024 0.140625 L 1024 575.859375 L 0 575.859375 Z M 0 0.140625 " fill-opacity="1" fill-rule="nonzero"/><path fill="#fcf8f1" d="M 0 0.140625 L 1024 0.140625 L 1024 575.859375 L 0 575.859375 Z M 0 0.140625 " fill-opacity="1" fill-rule="nonzero"/></g><path fill="#ffffff" d="M 25.664062 569.820312 C 25.664062 569.820312 24.757812 569.820312 23.664062 563.800781 C 22.265625 556.265625 25.363281 542.292969 25.816406 541.195312 C 22.640625 538.808594 10.394531 527.335938 11 511.46875 C 11.605469 495.605469 23.433594 479.585938 23.433594 479.585938 C 23.433594 479.585938 25.210938 445.925781 43.011719 426.839844 C 49.476562 427.484375 67.769531 443.273438 71.09375 446.226562 C 79.523438 443.652344 103.519531 443.992188 112.441406 446.152344 C 112.441406 446.152344 124.609375 432.179688 141.390625 427.597656 C 144.226562 428.621094 163.347656 460.730469 159.796875 479.890625 C 165.542969 485.117188 185.082031 514.878906 158.210938 542.597656 C 163.347656 557.0625 160.097656 569.859375 160.097656 569.859375 Z M 25.664062 569.820312 C 25.664062 569.820312 23.664062 568.800781 23.132812 565.125 C 21.960938 557.097656 25.289062 542.519531 25.816406 541.15625 C 22.640625 538.808594 10.394531 527.335938 11 511.46875 C 11.605469 495.605469 23.433594 479.585938 23.433594 479.585938 C 23.433594 479.585938 24.457031 445.089844 42.257812 425.96875 C 48.71875 426.613281 68.144531 442.441406 71.472656 445.433594 C 79.898438 442.855469 103.558594 443.957031 112.476562 446.113281 C 112.476562 446.113281 124.6875 431.347656 141.503906 426.765625 C 144.339844 427.785156 163.425781 460.691406 159.835938 479.851562 C 165.578125 485.078125 185.117188 514.839844 158.246094 542.558594 C 163.386719 557.023438 159.796875 569.820312 159.796875 569.820312 Z M 25.664062 569.820312 " fill-opacity="1" fill-rule="nonzero"/><path fill="#efb07d" d="M 82.46875 444.941406 C 82.46875 444.941406 104.691406 469.742188 75.855469 492.574219 C 47.019531 515.410156 10.359375 503.898438 15.308594 494.050781 C 15.308594 494.050781 20.109375 481.859375 24.644531 478.980469 C 21.886719 471.671875 28.386719 451.226562 34.320312 439.109375 C 34.320312 439.109375 40.292969 427.671875 43.011719 426.839844 C 45.734375 426.007812 63.382812 438.3125 70.488281 444.863281 C 75.023438 445.433594 82.46875 444.941406 82.46875 444.941406 Z M 139.726562 529.191406 C 136.214844 523.699219 126.5 515.785156 124.914062 526.882812 C 120.980469 523.777344 116.523438 525.140625 117.089844 532.449219 C 114.292969 529.609375 107.679688 528.851562 106.847656 541.421875 C 106.015625 553.992188 112.707031 569.898438 112.707031 569.898438 L 145.660156 569.898438 C 145.625 569.898438 143.242188 534.71875 139.726562 529.191406 Z M 139.726562 529.191406 " fill-opacity="1" fill-rule="nonzero"/><path fill="#ef5454" d="M 41.839844 459.175781 C 41.839844 459.175781 36.398438 467.582031 31.9375 475.15625 C 31.824219 449.066406 44.675781 437.707031 44.675781 437.707031 C 41.425781 444.789062 41.839844 459.175781 41.839844 459.175781 Z M 141.730469 459.175781 C 141.730469 459.175781 146.683594 467.582031 151.105469 475.15625 C 151.21875 449.066406 138.367188 437.707031 138.367188 437.707031 C 141.65625 444.789062 141.730469 459.175781 141.730469 459.175781 Z M 31.9375 526.957031 C 10.699219 510.484375 19.011719 487.425781 19.011719 487.425781 C 7.335938 499.996094 8.429688 526.539062 22.074219 539.871094 C 23.058594 540.816406 24.152344 541.726562 25.324219 542.597656 C 27.289062 537.671875 30.050781 531.3125 31.9375 526.957031 Z M 163.804688 487.425781 C 163.804688 487.425781 172.003906 510.183594 151.253906 526.65625 C 152.992188 530.894531 155.902344 537.863281 157.984375 542.21875 C 158.964844 541.460938 159.910156 540.664062 160.742188 539.871094 C 174.347656 526.539062 175.445312 499.996094 163.804688 487.425781 Z M 40.707031 544.300781 C 40.707031 544.300781 42.40625 533.8125 48.984375 535.210938 C 51.59375 535.78125 52.839844 538.921875 51.707031 541.914062 C 54.503906 536.800781 57.261719 537.410156 58.433594 537.789062 C 59.605469 538.164062 62.175781 540.136719 60.8125 544.679688 C 63.761719 539.945312 67.503906 541.460938 68.296875 542.785156 C 69.089844 544.074219 70.867188 545.890625 66.21875 559.902344 C 63.949219 566.222656 62.589844 569.898438 62.589844 569.898438 L 38.816406 569.898438 Z M 144.753906 569.898438 L 120.980469 569.898438 C 120.980469 569.898438 119.621094 566.222656 117.355469 559.902344 C 112.707031 545.890625 114.480469 544.074219 115.273438 542.785156 C 116.070312 541.496094 119.808594 539.945312 122.757812 544.679688 C 121.359375 540.136719 123.929688 538.164062 125.140625 537.789062 C 126.3125 537.410156 129.070312 536.800781 131.867188 541.914062 C 130.734375 538.921875 131.980469 535.78125 134.589844 535.210938 C 141.164062 533.8125 142.863281 544.300781 142.863281 544.300781 Z M 107.527344 552.515625 L 106.886719 548.277344 C 102.121094 549.070312 97.019531 550.019531 91.578125 550.019531 C 86.136719 550.019531 81.070312 549.070312 76.273438 548.277344 L 75.628906 552.515625 C 75.628906 552.515625 74.304688 557.324219 72.679688 561.71875 C 79.21875 563.347656 91.539062 563.800781 91.539062 563.800781 C 91.539062 563.800781 103.863281 563.347656 110.398438 561.71875 C 109.113281 557.023438 107.527344 552.515625 107.527344 552.515625 Z M 121.550781 448.574219 C 121.550781 448.574219 132.359375 433.84375 141.238281 428.808594 C 141.578125 427.519531 136.363281 426.535156 128.691406 432.445312 C 121.019531 438.390625 112.214844 446.074219 112.214844 446.074219 Z M 62.363281 448.574219 C 62.363281 448.574219 56.921875 433.957031 42.671875 428.808594 C 42.824219 427.332031 47.738281 427.332031 54.046875 431.347656 C 60.359375 435.359375 72.605469 445.8125 72.605469 445.8125 Z M 62.363281 448.574219 " fill-opacity="0.3" fill-rule="nonzero"/><path fill="#ffffff" d="M 42.257812 427.597656 C 42.257812 427.597656 28.613281 452.96875 29.558594 480.988281 C 21.433594 487.425781 17.199219 494.050781 12.890625 505.148438 C 12.738281 498.40625 16.746094 490.757812 23.433594 479.625 C 24.457031 465.347656 27.59375 440.773438 42.257812 427.597656 Z M 23.777344 541.042969 C 23.777344 541.042969 25.175781 541.195312 26.269531 536.160156 C 12.550781 522.375 12.664062 505.867188 12.664062 505.867188 C 5.484375 521.617188 23.777344 541.042969 23.777344 541.042969 Z M 170.871094 505.867188 C 170.871094 505.867188 170.984375 522.375 157.265625 536.160156 C 158.359375 541.234375 159.757812 541.042969 159.757812 541.042969 C 159.757812 541.042969 178.050781 521.617188 170.871094 505.867188 Z M 170.871094 505.867188 " fill-opacity="1" fill-rule="nonzero"/><path fill="#89e3f7" d="M 66.179688 483.902344 C 66.179688 483.902344 57.261719 495.148438 49.171875 509.652344 C 39.761719 526.617188 39.800781 569.898438 39.800781 569.898438 L 18.636719 569.898438 C 18.636719 569.898438 18.597656 526.996094 30.351562 508.742188 C 42.257812 490.226562 47.171875 490.191406 47.171875 490.191406 Z M 117.050781 483.902344 C 117.050781 483.902344 125.972656 495.148438 134.058594 509.652344 C 143.46875 526.578125 143.433594 569.898438 143.433594 569.898438 L 164.597656 569.898438 C 164.597656 569.898438 164.632812 526.996094 152.878906 508.742188 C 140.976562 490.226562 136.0625 490.191406 136.0625 490.191406 Z M 117.050781 483.902344 " fill-opacity="1" fill-rule="nonzero"/><path fill="#2b0806" d="M 165.503906 569.898438 L 144.753906 569.898438 C 144.753906 569.898438 141.238281 533.621094 140.144531 523.4375 C 157.1875 576.070312 149.441406 525.292969 147.96875 517.640625 C 152.84375 526.917969 155.640625 561.300781 158.8125 552.101562 C 161.949219 542.898438 153.789062 513.324219 154.164062 513.929688 C 164.9375 530.667969 165.503906 569.898438 165.503906 569.898438 Z M 18.070312 569.898438 L 38.816406 569.898438 C 38.816406 569.898438 42.332031 533.621094 43.429688 523.4375 C 26.382812 576.070312 34.132812 525.292969 35.605469 517.640625 C 30.730469 526.917969 27.933594 561.300781 24.757812 552.101562 C 21.621094 542.898438 29.785156 513.363281 29.40625 513.929688 C 18.671875 530.667969 18.070312 569.898438 18.070312 569.898438 Z M 18.070312 569.898438 " fill-opacity="0.2" fill-rule="nonzero"/><path fill="#2b0806" d="M 104.617188 468.304688 C 102.121094 466.789062 103.976562 463.039062 106.46875 464.554688 C 108.546875 466.070312 109.871094 467.773438 113.460938 468.417969 C 114.671875 468.644531 115.765625 469.023438 115.765625 470.121094 C 115.804688 471.179688 114.179688 471.484375 112.96875 471.292969 C 110.136719 470.839844 107.074219 469.816406 104.617188 468.304688 Z M 163.878906 538.582031 C 184.023438 514.6875 169.359375 489.582031 161.875 479.851562 C 161.007812 446.226562 144.679688 424.644531 140.558594 425.136719 C 126.574219 428.882812 113.121094 442.628906 111.15625 444.675781 C 103.105469 442.554688 95.660156 442.328125 91.992188 442.402344 C 88.328125 442.363281 80.882812 442.554688 72.832031 444.675781 C 70.828125 442.628906 57.375 428.882812 43.390625 425.136719 C 39.234375 424.644531 22.945312 446.1875 22.035156 479.8125 C 14.589844 489.507812 0.0390625 514.421875 19.769531 538.203125 C 19.390625 540.628906 19.050781 543.203125 18.785156 545.851562 C 17.84375 556.113281 16.746094 563.992188 16.214844 569.859375 L 19.316406 569.859375 C 19.316406 569.859375 19.957031 545.625 24.683594 526.84375 C 29.519531 507.722656 42.257812 494.507812 45.242188 491.589844 C 45.847656 491.476562 46.488281 491.363281 47.207031 491.175781 C 52.121094 489.960938 58.054688 488.597656 62.816406 487.085938 C 56.015625 494.429688 42.40625 512.796875 39.609375 544.488281 C 38.667969 555.355469 37.570312 563.648438 37.042969 569.859375 L 40.101562 569.859375 C 40.101562 569.859375 40.554688 552.0625 43.429688 534.644531 C 45.128906 530.289062 46.792969 527.488281 49.285156 525.027344 C 54.238281 520.140625 59.1875 524.078125 57.375 530.628906 C 58.886719 528.246094 60.585938 525.671875 63.121094 526.996094 C 66.257812 528.585938 65.347656 534.910156 65.347656 534.910156 C 65.347656 534.910156 69.242188 530.972656 71.546875 532.03125 C 75.25 533.734375 76.347656 541.042969 73.550781 553.652344 C 72.945312 556.453125 71.167969 563.007812 69.242188 569.859375 L 72.53125 569.859375 C 72.871094 568.609375 73.132812 567.585938 73.285156 566.90625 L 73.324219 566.753906 L 74.191406 563.082031 C 76.082031 554.976562 77.066406 548.769531 77.59375 543.921875 C 78.992188 531.273438 71.207031 526.84375 67.769531 530.515625 C 68.449219 524.003906 62.550781 521.996094 59.152344 525.214844 C 59.339844 524.042969 58.773438 522.335938 57.449219 521.203125 C 55.410156 519.613281 54.011719 520.066406 54.011719 520.066406 C 52.6875 520.140625 51.101562 520.632812 49.285156 521.882812 C 47.585938 523.019531 46.261719 524.570312 44.863281 526.769531 C 45.054688 525.972656 45.203125 525.214844 45.394531 524.457031 C 49.625 506.773438 61.304688 491.742188 66.445312 485.796875 C 69.28125 484.625 71.207031 483.375 71.472656 482.011719 C 71.851562 479.964844 45.128906 482.578125 43.050781 483.980469 C 40.027344 485.988281 43.351562 487.199219 45.28125 486.441406 C 41.007812 488.335938 38.441406 491.855469 42.75 491.894531 C 39.535156 494.429688 25.96875 506.511719 20.449219 533.8125 C 13.304688 524.269531 4.992188 505.183594 25.210938 480.304688 C 24.605469 472.65625 26.457031 446.417969 42.671875 428.847656 C 44.941406 427.710938 56.957031 434.488281 69.203125 445.773438 C 66.9375 446.53125 64.632812 447.476562 62.402344 448.574219 C 63.269531 449.558594 74.609375 445.886719 91.992188 445.886719 C 109.378906 445.886719 120.753906 449.558594 121.585938 448.574219 C 119.355469 447.4375 117.050781 446.53125 114.785156 445.773438 C 127.027344 434.488281 139.046875 427.671875 141.316406 428.847656 C 154.960938 445.242188 159.683594 467.925781 158.625 480.304688 C 179.070312 505.488281 170.304688 524.761719 163.121094 534.191406 C 157.640625 506.585938 143.960938 494.429688 140.710938 491.894531 C 145.058594 491.855469 142.449219 488.335938 138.179688 486.441406 C 140.105469 487.199219 143.433594 486.023438 140.410156 483.980469 C 138.328125 482.578125 111.609375 479.964844 111.988281 482.011719 C 112.25 483.375 114.179688 484.625 117.015625 485.796875 C 122.152344 491.78125 133.832031 506.773438 138.066406 524.457031 C 138.253906 525.292969 138.441406 526.125 138.632812 526.957031 C 137.195312 524.648438 135.835938 523.058594 134.097656 521.882812 C 132.28125 520.671875 130.695312 520.140625 129.371094 520.066406 C 129.371094 520.066406 127.972656 519.613281 125.933594 521.203125 C 124.609375 522.335938 124.042969 524.042969 124.230469 525.214844 C 120.832031 521.996094 114.933594 524.003906 115.617188 530.515625 C 112.175781 526.84375 104.390625 531.3125 105.789062 543.921875 C 106.316406 548.769531 107.339844 555.015625 109.191406 563.082031 L 110.058594 566.753906 L 110.097656 566.90625 C 110.25 567.585938 110.511719 568.609375 110.851562 569.859375 L 114.140625 569.859375 C 112.214844 562.96875 110.4375 556.417969 109.832031 553.652344 C 107.074219 541.082031 108.132812 533.773438 111.835938 532.03125 C 114.179688 530.933594 118.035156 534.910156 118.035156 534.910156 C 118.035156 534.910156 117.128906 528.625 120.265625 526.996094 C 122.796875 525.707031 124.460938 528.246094 126.007812 530.628906 C 124.195312 524.117188 129.144531 520.179688 134.097656 525.027344 C 136.667969 527.5625 138.367188 530.441406 140.105469 534.984375 C 142.941406 552.289062 143.394531 569.859375 143.394531 569.859375 L 146.457031 569.859375 C 145.925781 563.648438 144.832031 555.355469 143.886719 544.488281 C 141.089844 512.832031 127.484375 494.429688 120.679688 487.085938 C 125.441406 488.597656 131.375 489.960938 136.289062 491.175781 C 137.007812 491.363281 137.6875 491.476562 138.253906 491.589844 C 141.238281 494.507812 153.976562 507.722656 158.8125 526.84375 C 163.574219 545.625 164.179688 569.859375 164.179688 569.859375 L 167.242188 569.859375 C 166.714844 563.992188 165.617188 556.113281 164.671875 545.851562 C 164.558594 543.351562 164.257812 540.929688 163.878906 538.582031 Z M 75.742188 464.554688 C 73.664062 466.070312 72.339844 467.773438 68.75 468.417969 C 67.542969 468.644531 66.445312 469.023438 66.445312 470.121094 C 66.40625 471.179688 68.03125 471.484375 69.242188 471.292969 C 72.078125 470.839844 75.136719 469.816406 77.59375 468.304688 C 80.089844 466.75 78.238281 463.039062 75.742188 464.554688 Z M 99.402344 492.082031 C 98.835938 494.089844 98.003906 495.566406 97.324219 495.339844 C 96.605469 495.113281 96 490.226562 95.886719 487.5 C 94.488281 486.136719 93.015625 485.265625 91.578125 485.230469 C 84.171875 485.53125 76.308594 506.738281 78.691406 508.25 C 81.75 510.144531 88.289062 510.902344 91.578125 510.902344 C 94.867188 510.902344 101.367188 510.144531 104.464844 508.25 C 105.941406 507.304688 103.371094 498.519531 99.402344 492.082031 Z M 138.40625 437.707031 C 138.40625 437.707031 141.65625 451.375 139.878906 462.585938 C 142.5625 463.722656 151.140625 475.15625 151.140625 475.15625 C 151.140625 475.15625 149.667969 467.507812 143.582031 460.957031 C 144.90625 453.535156 142.523438 441.570312 138.40625 437.707031 Z M 39.496094 460.957031 C 33.414062 467.507812 31.9375 475.15625 31.9375 475.15625 C 31.9375 475.15625 40.554688 463.722656 43.203125 462.585938 C 41.425781 451.378906 44.675781 437.707031 44.675781 437.707031 C 40.519531 441.570312 38.136719 453.535156 39.496094 460.957031 Z M 39.496094 460.957031 " fill-opacity="1" fill-rule="nonzero"/><path fill="#ef5454" d="M 101.066406 501.777344 C 101.78125 504.164062 101.972656 505.980469 101.40625 506.359375 C 99.0625 507.835938 94.035156 508.402344 91.539062 508.402344 C 89.007812 508.402344 84.019531 507.835938 81.675781 506.359375 C 81.183594 506.054688 81.261719 504.65625 81.75 502.761719 C 91.050781 493.671875 98.003906 498.480469 101.066406 501.777344 Z M 101.066406 501.777344 C 101.78125 504.164062 101.972656 505.980469 101.40625 506.359375 C 99.0625 507.835938 94.035156 508.402344 91.539062 508.402344 C 89.007812 508.402344 84.019531 507.835938 81.675781 506.359375 C 81.183594 506.054688 81.261719 504.65625 81.75 502.761719 C 91.050781 493.671875 98.003906 498.480469 101.066406 501.777344 Z M 101.066406 501.777344 " fill-opacity="1" fill-rule="nonzero"/><g clip-path="url(#aa6f5aa57f)"><path fill="#ed1d2b" d="M 551.804688 159.765625 C 551.804688 181.707031 534.015625 199.496094 512.074219 199.496094 C 490.128906 199.496094 472.34375 181.707031 472.34375 159.765625 C 472.34375 137.820312 490.128906 120.035156 512.074219 120.035156 C 534.015625 120.035156 551.804688 137.820312 551.804688 159.765625 " fill-opacity="1" fill-rule="nonzero"/></g><path fill="#ffffff" d="M 531.671875 140.164062 C 529.753906 138.242188 526.640625 138.242188 524.71875 140.164062 L 512.074219 152.808594 L 499.425781 140.164062 C 497.507812 138.242188 494.394531 138.242188 492.472656 140.164062 C 490.550781 142.085938 490.550781 145.199219 492.472656 147.121094 L 505.117188 159.765625 L 492.472656 172.410156 C 490.550781 174.332031 490.550781 177.445312 492.472656 179.367188 C 494.394531 181.285156 497.507812 181.285156 499.425781 179.367188 L 512.074219 166.71875 L 524.71875 179.367188 C 526.640625 181.285156 529.753906 181.285156 531.671875 179.367188 C 533.59375 177.445312 533.59375 174.332031 531.671875 172.410156 L 519.027344 159.765625 L 531.671875 147.121094 C 533.59375 145.199219 533.59375 142.085938 531.671875 140.164062 " fill-opacity="1" fill-rule="nonzero"/><g fill="#010101" fill-opacity="1"><g transform="translate(291.205826, 100.868961)"><g><path d="M 9.863281 0 L 19.308594 0 L 19.308594 -3.445312 L 17.117188 -3.445312 L 17.117188 -24.320312 L 22.964844 -24.320312 L 22.964844 -21.816406 L 26.929688 -21.816406 L 26.929688 -28.703125 L 2.085938 -28.703125 L 2.085938 -21.816406 L 6.054688 -21.816406 L 6.054688 -24.320312 L 12.054688 -24.320312 L 12.054688 -3.445312 L 9.863281 -3.445312 Z M 9.863281 0 "/></g></g></g><g fill="#010101" fill-opacity="1"><g transform="translate(320.218791, 100.868961)"><g><path d="M 2.609375 0 L 12.109375 0 L 12.109375 -3.445312 L 9.914062 -3.445312 L 9.914062 -15.550781 C 10.90625 -16.386719 13.257812 -17.015625 14.664062 -17.015625 C 16.386719 -17.015625 18.371094 -16.492188 18.578125 -14.507812 L 18.578125 -3.445312 L 16.335938 -3.445312 L 16.335938 0 L 25.9375 0 L 25.9375 -3.445312 L 23.640625 -3.445312 L 23.640625 -14.5625 C 23.640625 -19.152344 21.34375 -21.242188 16.074219 -21.242188 C 13.097656 -21.242188 11.953125 -20.5625 9.914062 -19.257812 L 9.914062 -28.703125 L 2.609375 -28.703125 L 2.609375 -24.582031 L 4.855469 -24.582031 L 4.855469 -3.445312 L 2.609375 -3.445312 Z M 2.609375 0 "/></g></g></g><g fill="#010101" fill-opacity="1"><g transform="translate(348.240301, 100.868961)"><g><path d="M 8.609375 0.261719 C 10.4375 0.261719 13.621094 0.0507812 15.710938 -1.722656 L 15.710938 0 L 22.234375 0 L 22.234375 -3.445312 L 20.5625 -3.445312 L 20.5625 -13.933594 C 20.5625 -20.511719 15.394531 -21.242188 11.222656 -21.242188 C 8.558594 -21.242188 5.6875 -20.71875 3.132812 -19.882812 L 3.132812 -14.925781 L 7.097656 -14.925781 L 7.097656 -16.492188 C 7.878906 -17.015625 9.863281 -17.015625 10.855469 -17.015625 L 11.273438 -17.015625 C 12.628906 -17.015625 15.5 -16.910156 15.5 -14.195312 L 15.5 -12.683594 C 8.925781 -12.003906 2.347656 -11.378906 2.347656 -6.210938 L 2.347656 -4.90625 C 2.347656 -0.835938 5.011719 0.261719 8.609375 0.261719 Z M 9.863281 -3.445312 C 9.027344 -3.445312 7.410156 -3.601562 7.410156 -5.269531 L 7.410156 -6 C 7.410156 -8.507812 13.621094 -8.558594 15.5 -8.558594 L 15.5 -5.742188 C 14.039062 -4.019531 11.898438 -3.445312 9.863281 -3.445312 Z M 9.863281 -3.445312 "/></g></g></g><g fill="#010101" fill-opacity="1"><g transform="translate(372.556924, 100.868961)"><g><path d="M 2.609375 0 L 12.109375 0 L 12.109375 -3.445312 L 9.863281 -3.445312 L 9.863281 -15.550781 C 10.855469 -16.386719 13.203125 -17.015625 14.613281 -17.015625 C 16.335938 -17.015625 18.320312 -16.492188 18.527344 -14.507812 L 18.527344 -3.445312 L 16.335938 -3.445312 L 16.335938 0 L 25.832031 0 L 25.832031 -3.445312 L 23.589844 -3.445312 L 23.589844 -14.5625 C 23.589844 -19.152344 21.292969 -21.242188 16.023438 -21.242188 C 13.046875 -21.242188 11.898438 -20.5625 9.863281 -19.257812 L 9.863281 -20.875 L 2.609375 -20.875 L 2.609375 -17.429688 L 4.800781 -17.429688 L 4.800781 -3.445312 L 2.609375 -3.445312 Z M 2.609375 0 "/></g></g></g><g fill="#010101" fill-opacity="1"><g transform="translate(400.474069, 100.868961)"><g><path d="M 2.609375 0 L 12.109375 0 L 12.109375 -3.445312 L 9.914062 -3.445312 L 9.914062 -15.550781 C 10.90625 -16.386719 13.257812 -17.015625 14.664062 -17.015625 C 16.386719 -17.015625 18.371094 -16.492188 18.578125 -14.507812 L 18.578125 -3.445312 L 16.335938 -3.445312 L 16.335938 0 L 25.9375 0 L 25.9375 -3.445312 L 23.640625 -3.445312 L 23.640625 -14.5625 C 23.640625 -19.152344 21.34375 -21.242188 16.074219 -21.242188 C 13.097656 -21.242188 11.953125 -20.5625 9.914062 -19.257812 L 9.914062 -28.703125 L 2.609375 -28.703125 L 2.609375 -24.582031 L 4.855469 -24.582031 L 4.855469 -3.445312 L 2.609375 -3.445312 Z M 2.609375 0 "/></g></g></g><g fill="#010101" fill-opacity="1"><g transform="translate(428.495579, 100.868961)"><g/></g></g><g fill="#010101" fill-opacity="1"><g transform="translate(439.349351, 100.868961)"><g><path d="M 9.863281 0 L 19.308594 0 L 19.308594 -3.445312 L 17.117188 -3.445312 L 17.117188 -24.320312 L 22.964844 -24.320312 L 22.964844 -21.816406 L 26.929688 -21.816406 L 26.929688 -28.703125 L 2.085938 -28.703125 L 2.085938 -21.816406 L 6.054688 -21.816406 L 6.054688 -24.320312 L 12.054688 -24.320312 L 12.054688 -3.445312 L 9.863281 -3.445312 Z M 9.863281 0 "/></g></g></g><g fill="#010101" fill-opacity="1"><g transform="translate(468.362316, 100.868961)"><g><path d="M 11.691406 0.261719 C 15.867188 0.261719 20.824219 -0.574219 20.824219 -6 L 20.824219 -14.300781 C 20.824219 -20.144531 15.867188 -21.242188 11.691406 -21.242188 C 7.566406 -21.242188 2.609375 -20.144531 2.609375 -14.300781 L 2.609375 -6 C 2.609375 -0.574219 7.566406 0.261719 11.691406 0.261719 Z M 11.691406 -3.445312 C 10.332031 -3.445312 7.671875 -3.808594 7.671875 -6.523438 L 7.671875 -14.144531 C 7.671875 -16.855469 10.332031 -17.015625 11.691406 -17.015625 C 13.097656 -17.015625 15.761719 -16.855469 15.761719 -14.144531 L 15.761719 -6.523438 C 15.761719 -3.808594 13.097656 -3.445312 11.691406 -3.445312 Z M 11.691406 -3.445312 "/></g></g></g><g fill="#010101" fill-opacity="1"><g transform="translate(491.791837, 100.868961)"><g><path d="M 9.082031 -23.695312 L 13.464844 -23.695312 L 17.796875 -31.367188 L 12.160156 -31.367188 Z M 8.609375 0.261719 C 10.4375 0.261719 13.621094 0.0507812 15.710938 -1.722656 L 15.710938 0 L 22.234375 0 L 22.234375 -3.445312 L 20.5625 -3.445312 L 20.5625 -13.933594 C 20.5625 -20.511719 15.394531 -21.242188 11.222656 -21.242188 C 8.558594 -21.242188 5.6875 -20.71875 3.132812 -19.882812 L 3.132812 -14.925781 L 7.097656 -14.925781 L 7.097656 -16.492188 C 7.878906 -17.015625 9.863281 -17.015625 10.855469 -17.015625 L 11.273438 -17.015625 C 12.628906 -17.015625 15.5 -16.910156 15.5 -14.195312 L 15.5 -12.683594 C 8.925781 -12.003906 2.347656 -11.378906 2.347656 -6.210938 L 2.347656 -4.90625 C 2.347656 -0.835938 5.011719 0.261719 8.609375 0.261719 Z M 9.863281 -3.445312 C 9.027344 -3.445312 7.410156 -3.601562 7.410156 -5.269531 L 7.410156 -6 C 7.410156 -8.507812 13.621094 -8.558594 15.5 -8.558594 L 15.5 -5.742188 C 14.039062 -4.019531 11.898438 -3.445312 9.863281 -3.445312 Z M 9.863281 -3.445312 "/></g></g></g><g fill="#010101" fill-opacity="1"><g transform="translate(516.108459, 100.868961)"><g><path d="M 2.609375 0 L 12.109375 0 L 12.109375 -3.445312 L 9.863281 -3.445312 L 9.863281 -15.550781 C 10.855469 -16.386719 13.203125 -17.015625 14.613281 -17.015625 C 16.335938 -17.015625 18.320312 -16.492188 18.527344 -14.507812 L 18.527344 -3.445312 L 16.335938 -3.445312 L 16.335938 0 L 25.832031 0 L 25.832031 -3.445312 L 23.589844 -3.445312 L 23.589844 -14.5625 C 23.589844 -19.152344 21.292969 -21.242188 16.023438 -21.242188 C 13.046875 -21.242188 11.898438 -20.5625 9.863281 -19.257812 L 9.863281 -20.875 L 2.609375 -20.875 L 2.609375 -17.429688 L 4.800781 -17.429688 L 4.800781 -3.445312 L 2.609375 -3.445312 Z M 2.609375 0 "/></g></g></g><g fill="#010101" fill-opacity="1"><g transform="translate(544.025604, 100.868961)"><g/></g></g><g fill="#010101" fill-opacity="1"><g transform="translate(554.879377, 100.868961)"><g><path d="M 9.863281 0 L 19.308594 0 L 19.308594 -3.445312 L 17.117188 -3.445312 L 17.117188 -24.320312 L 22.964844 -24.320312 L 22.964844 -21.816406 L 26.929688 -21.816406 L 26.929688 -28.703125 L 2.085938 -28.703125 L 2.085938 -21.816406 L 6.054688 -21.816406 L 6.054688 -24.320312 L 12.054688 -24.320312 L 12.054688 -3.445312 L 9.863281 -3.445312 Z M 9.863281 0 "/></g></g></g><g fill="#010101" fill-opacity="1"><g transform="translate(583.892331, 100.868961)"><g><path d="M 2.609375 0 L 12.109375 0 L 12.109375 -3.445312 L 9.914062 -3.445312 L 9.914062 -15.550781 C 10.90625 -16.386719 13.257812 -17.015625 14.664062 -17.015625 C 16.386719 -17.015625 18.371094 -16.492188 18.578125 -14.507812 L 18.578125 -3.445312 L 16.335938 -3.445312 L 16.335938 0 L 25.9375 0 L 25.9375 -3.445312 L 23.640625 -3.445312 L 23.640625 -14.5625 C 23.640625 -19.152344 21.34375 -21.242188 16.074219 -21.242188 C 13.097656 -21.242188 11.953125 -20.5625 9.914062 -19.257812 L 9.914062 -28.703125 L 2.609375 -28.703125 L 2.609375 -24.582031 L 4.855469 -24.582031 L 4.855469 -3.445312 L 2.609375 -3.445312 Z M 2.609375 0 "/></g></g></g><g fill="#010101" fill-opacity="1"><g transform="translate(611.913841, 100.868961)"><g><path d="M 4.957031 -24.371094 L 9.34375 -24.371094 L 11.222656 -29.589844 L 13.097656 -24.371094 L 17.484375 -24.371094 L 13.988281 -32.671875 L 8.453125 -32.671875 Z M 8.609375 0.261719 C 10.4375 0.261719 13.621094 0.0507812 15.710938 -1.722656 L 15.710938 0 L 22.234375 0 L 22.234375 -3.445312 L 20.5625 -3.445312 L 20.5625 -13.933594 C 20.5625 -20.511719 15.394531 -21.242188 11.222656 -21.242188 C 8.558594 -21.242188 5.6875 -20.71875 3.132812 -19.882812 L 3.132812 -14.925781 L 7.097656 -14.925781 L 7.097656 -16.492188 C 7.878906 -17.015625 9.863281 -17.015625 10.855469 -17.015625 L 11.273438 -17.015625 C 12.628906 -17.015625 15.5 -16.910156 15.5 -14.195312 L 15.5 -12.683594 C 8.925781 -12.003906 2.347656 -11.378906 2.347656 -6.210938 L 2.347656 -4.90625 C 2.347656 -0.835938 5.011719 0.261719 8.609375 0.261719 Z M 9.863281 -3.445312 C 9.027344 -3.445312 7.410156 -3.601562 7.410156 -5.269531 L 7.410156 -6 C 7.410156 -8.507812 13.621094 -8.558594 15.5 -8.558594 L 15.5 -5.742188 C 14.039062 -4.019531 11.898438 -3.445312 9.863281 -3.445312 Z M 9.863281 -3.445312 "/></g></g></g><g fill="#010101" fill-opacity="1"><g transform="translate(633.102786, 87.03874)"><g><path d="M -12.109375 -21.292969 L -7.722656 -21.292969 L -3.390625 -28.964844 L -9.027344 -28.964844 Z M -12.109375 -21.292969 "/></g></g></g><g fill="#010101" fill-opacity="1"><g transform="translate(636.230464, 100.868961)"><g><path d="M 12.734375 0.261719 C 14.039062 0.261719 15.238281 0 16.28125 -0.261719 L 15.65625 -3.808594 C 14.976562 -3.445312 13.414062 -3.445312 12.628906 -3.445312 C 11.011719 -3.445312 10.28125 -4.019531 10.28125 -6.574219 L 10.28125 -16.648438 L 15.550781 -16.648438 L 15.550781 -20.875 L 10.28125 -20.875 L 10.28125 -28.703125 L 5.21875 -28.703125 L 5.21875 -20.875 L 1.304688 -20.875 L 1.304688 -16.648438 L 5.21875 -16.648438 L 5.21875 -6.835938 C 5.21875 -0.625 8.664062 0.261719 12.734375 0.261719 Z M 12.734375 0.261719 "/></g></g></g><g fill="#010101" fill-opacity="1"><g transform="translate(653.554749, 100.868961)"><g/></g></g><g fill="#010101" fill-opacity="1"><g transform="translate(664.408521, 100.868961)"><g><path d="M 2.871094 0 L 17.847656 0 C 21.867188 0 26.511719 -1.097656 26.511719 -7.203125 C 26.511719 -8.507812 26.304688 -12.472656 23.851562 -13.726562 C 26.304688 -15.34375 26.511719 -18.945312 26.511719 -20.980469 C 26.511719 -27.921875 21.605469 -28.703125 17.585938 -28.703125 L 2.871094 -28.703125 L 2.871094 -25.257812 L 5.269531 -25.257812 L 5.269531 -3.445312 L 2.871094 -3.445312 Z M 10.332031 -15.8125 L 10.332031 -24.320312 L 15.761719 -24.320312 C 16.855469 -24.320312 21.449219 -24.320312 21.449219 -20.511719 C 21.449219 -18.734375 21.398438 -15.8125 16.023438 -15.8125 Z M 10.332031 -3.707031 L 10.332031 -11.636719 L 15.867188 -11.636719 C 19.464844 -11.636719 21.449219 -10.332031 21.449219 -7.359375 C 21.449219 -5.425781 21.398438 -3.707031 16.023438 -3.707031 Z M 10.332031 -3.707031 "/></g></g></g><g fill="#010101" fill-opacity="1"><g transform="translate(693.786752, 100.868961)"><g><path d="M 8.609375 0.261719 C 10.4375 0.261719 13.621094 0.0507812 15.710938 -1.722656 L 15.710938 0 L 22.234375 0 L 22.234375 -3.445312 L 20.5625 -3.445312 L 20.5625 -13.933594 C 20.5625 -20.511719 15.394531 -21.242188 11.222656 -21.242188 C 8.558594 -21.242188 5.6875 -20.71875 3.132812 -19.882812 L 3.132812 -14.925781 L 7.097656 -14.925781 L 7.097656 -16.492188 C 7.878906 -17.015625 9.863281 -17.015625 10.855469 -17.015625 L 11.273438 -17.015625 C 12.628906 -17.015625 15.5 -16.910156 15.5 -14.195312 L 15.5 -12.683594 C 8.925781 -12.003906 2.347656 -11.378906 2.347656 -6.210938 L 2.347656 -4.90625 C 2.347656 -0.835938 5.011719 0.261719 8.609375 0.261719 Z M 9.863281 -3.445312 C 9.027344 -3.445312 7.410156 -3.601562 7.410156 -5.269531 L 7.410156 -6 C 7.410156 -8.507812 13.621094 -8.558594 15.5 -8.558594 L 15.5 -5.742188 C 14.039062 -4.019531 11.898438 -3.445312 9.863281 -3.445312 Z M 9.601562 9.027344 L 14.664062 9.027344 L 14.664062 3.964844 L 9.601562 3.964844 Z M 9.601562 9.027344 "/></g></g></g><g fill="#010101" fill-opacity="1"><g transform="translate(718.103375, 100.868961)"><g><path d="M 4.800781 -23.902344 L 9.863281 -23.902344 L 9.863281 -28.964844 L 4.800781 -28.964844 Z M 2.609375 0 L 12.054688 0 L 12.054688 -3.445312 L 9.863281 -3.445312 L 9.863281 -20.875 L 2.609375 -20.875 L 2.609375 -17.429688 L 4.800781 -17.429688 L 4.800781 -3.445312 L 2.609375 -3.445312 Z M 2.609375 0 "/></g></g></g></svg>