<svg width="535" height="256" viewBox="0 0 535 256" fill="none" xmlns="http://www.w3.org/2000/svg">
<path d="M72.672 80.776C77.424 80.776 81.868 81.7 86.004 83.548C90.14 85.396 93.748 87.904 96.828 91.072C99.908 94.24 102.328 97.98 104.088 102.292C105.848 106.516 106.728 111.048 106.728 115.888C106.728 120.728 105.848 125.304 104.088 129.616C102.328 133.84 99.908 137.536 96.828 140.704C93.748 143.872 90.14 146.38 86.004 148.228C81.868 150.076 77.424 151 72.672 151C68.448 151 64.444 150.252 60.66 148.756C56.964 147.26 53.62 145.192 50.628 142.552V179.776H36.24V80.644H50.628V89.092C53.62 86.54 56.964 84.516 60.66 83.02C64.444 81.524 68.448 80.776 72.672 80.776ZM70.692 136.348C73.42 136.348 75.972 135.82 78.348 134.764C80.812 133.62 82.924 132.124 84.684 130.276C86.532 128.428 87.984 126.272 89.04 123.808C90.096 121.256 90.624 118.572 90.624 115.756C90.624 112.852 90.096 110.168 89.04 107.704C87.984 105.152 86.532 102.952 84.684 101.104C82.924 99.256 80.812 97.804 78.348 96.748C75.972 95.692 73.42 95.164 70.692 95.164C67.876 95.164 65.236 95.692 62.772 96.748C60.396 97.804 58.284 99.256 56.436 101.104C54.676 102.952 53.268 105.152 52.212 107.704C51.156 110.168 50.628 112.852 50.628 115.756C50.628 118.572 51.156 121.256 52.212 123.808C53.268 126.272 54.676 128.428 56.436 130.276C58.284 132.124 60.396 133.62 62.772 134.764C65.236 135.82 67.876 136.348 70.692 136.348ZM193.227 84.604V151H178.839V141.496C175.759 145.456 172.019 148.624 167.619 151C163.219 153.376 158.467 154.564 153.363 154.564C148.787 154.564 144.475 153.596 140.427 151.66C136.379 149.724 132.815 147.084 129.735 143.74C126.743 140.396 124.367 136.524 122.607 132.124C120.847 127.636 119.967 122.84 119.967 117.736C119.967 112.632 120.847 107.88 122.607 103.48C124.367 98.992 126.743 95.076 129.735 91.732C132.815 88.388 136.379 85.748 140.427 83.812C144.475 81.876 148.787 80.908 153.363 80.908C158.467 80.908 163.219 82.096 167.619 84.472C172.019 86.76 175.759 89.928 178.839 93.976V84.604H193.227ZM157.191 139.78C160.183 139.78 162.999 139.208 165.639 138.064C168.279 136.92 170.567 135.38 172.503 133.444C174.439 131.42 175.979 129.088 177.123 126.448C178.267 123.808 178.839 120.948 178.839 117.868C178.839 114.876 178.267 112.06 177.123 109.42C175.979 106.692 174.439 104.36 172.503 102.424C170.567 100.4 168.279 98.816 165.639 97.672C162.999 96.528 160.183 95.956 157.191 95.956C154.199 95.956 151.383 96.528 148.743 97.672C146.103 98.816 143.771 100.4 141.747 102.424C139.811 104.36 138.271 106.692 137.127 109.42C135.983 112.06 135.411 114.876 135.411 117.868C135.411 120.948 135.983 123.808 137.127 126.448C138.271 129.088 139.811 131.42 141.747 133.444C143.771 135.38 146.103 136.92 148.743 138.064C151.383 139.208 154.199 139.78 157.191 139.78ZM211.681 80.644H228.181L246.661 125.92L264.877 80.644H281.377L241.513 179.776H224.749L238.213 146.776L211.681 80.644ZM346.317 52.924C353.093 52.924 359.429 54.2 365.325 56.752C371.309 59.304 376.501 62.824 380.901 67.312C385.389 71.712 388.909 76.904 391.461 82.888C394.013 88.784 395.289 95.12 395.289 101.896C395.289 108.672 394.013 115.052 391.461 121.036C388.909 126.932 385.389 132.124 380.901 136.612C376.501 141.012 371.309 144.488 365.325 147.04C359.429 149.592 353.093 150.868 346.317 150.868C339.541 150.868 333.161 149.592 327.177 147.04C321.281 144.488 316.089 141.012 311.601 136.612C307.201 132.124 303.681 126.932 301.041 121.036C298.489 115.052 297.213 108.672 297.213 101.896C297.213 95.12 298.489 88.784 301.041 82.888C303.681 76.904 307.201 71.712 311.601 67.312C316.089 62.824 321.281 59.304 327.177 56.752C333.161 54.2 339.541 52.924 346.317 52.924ZM346.317 134.764C350.805 134.764 355.029 133.928 358.989 132.256C363.037 130.496 366.557 128.164 369.549 125.26C372.541 122.268 374.873 118.792 376.545 114.832C378.305 110.784 379.185 106.472 379.185 101.896C379.185 97.32 378.305 93.052 376.545 89.092C374.873 85.132 372.541 81.656 369.549 78.664C366.557 75.672 363.037 73.34 358.989 71.668C355.029 69.908 350.805 69.028 346.317 69.028C341.741 69.028 337.429 69.908 333.381 71.668C329.421 73.34 325.945 75.672 322.953 78.664C319.961 81.656 317.585 85.132 315.825 89.092C314.153 93.052 313.317 97.32 313.317 101.896C313.317 106.472 314.153 110.784 315.825 114.832C317.585 118.792 319.961 122.268 322.953 125.26C325.945 128.164 329.421 130.496 333.381 132.256C337.429 133.928 341.741 134.764 346.317 134.764ZM441.591 53.056C445.111 53.056 448.235 53.408 450.963 54.112C453.691 54.728 456.023 55.432 457.959 56.224C460.247 57.192 462.227 58.204 463.899 59.26L456.507 71.932C455.187 71.14 453.735 70.436 452.151 69.82C450.831 69.292 449.247 68.808 447.399 68.368C445.639 67.84 443.703 67.576 441.591 67.576C439.303 67.576 437.367 67.972 435.783 68.764C434.199 69.556 432.879 70.524 431.823 71.668C430.855 72.812 430.107 74.088 429.579 75.496C429.139 76.816 428.919 78.048 428.919 79.192C428.919 82.536 430.107 85.044 432.483 86.716C434.947 88.3 437.983 89.62 441.591 90.676C445.287 91.644 449.247 92.612 453.471 93.58C457.695 94.548 461.611 96.044 465.219 98.068C468.915 100.004 471.951 102.776 474.327 106.384C476.791 109.904 478.023 114.788 478.023 121.036C478.023 125.084 477.187 128.956 475.515 132.652C473.843 136.26 471.423 139.428 468.255 142.156C465.175 144.884 461.391 147.04 456.903 148.624C452.415 150.208 447.311 151 441.591 151C437.015 151 433.011 150.56 429.579 149.68C426.147 148.712 423.111 147.568 420.471 146.248C417.831 144.928 415.543 143.564 413.607 142.156C411.671 140.66 409.955 139.428 408.459 138.46L415.983 125.788C421.175 129.924 426.015 132.74 430.503 134.236C434.991 135.732 438.687 136.48 441.591 136.48C444.231 136.48 446.827 136.172 449.379 135.556C452.019 134.852 454.395 133.884 456.507 132.652C458.619 131.332 460.291 129.704 461.523 127.768C462.843 125.832 463.503 123.588 463.503 121.036C463.503 118.22 462.799 115.932 461.391 114.172C459.983 112.412 458.135 110.96 455.847 109.816C453.559 108.584 450.919 107.616 447.927 106.912C445.023 106.12 442.031 105.328 438.951 104.536C435.959 103.656 432.967 102.644 429.975 101.5C427.071 100.356 424.475 98.86 422.187 97.012C419.899 95.076 418.051 92.7 416.643 89.884C415.235 86.98 414.531 83.416 414.531 79.192C414.531 74.176 415.587 69.996 417.699 66.652C419.811 63.22 422.319 60.536 425.223 58.6C428.127 56.576 431.075 55.168 434.067 54.376C437.147 53.496 439.655 53.056 441.591 53.056Z" fill="#6655FF"/>
<path d="M308.045 188.477C309.145 188.477 310.179 188.719 311.147 189.203C312.137 189.665 312.995 190.314 313.721 191.15C314.447 191.964 315.019 192.921 315.437 194.021C315.855 195.121 316.064 196.298 316.064 197.552C316.064 198.806 315.855 199.983 315.437 201.083C315.019 202.183 314.447 203.151 313.721 203.987C312.995 204.801 312.137 205.45 311.147 205.934C310.179 206.396 309.145 206.627 308.045 206.627C306.791 206.627 305.636 206.341 304.58 205.769C303.546 205.175 302.655 204.383 301.907 203.393V206H298.31V181.514H301.907V191.711C302.655 190.721 303.546 189.94 304.58 189.368C305.636 188.774 306.791 188.477 308.045 188.477ZM307.121 202.997C307.847 202.997 308.529 202.854 309.167 202.568C309.805 202.282 310.355 201.897 310.817 201.413C311.279 200.907 311.642 200.335 311.906 199.697C312.192 199.037 312.335 198.333 312.335 197.585C312.335 196.837 312.192 196.144 311.906 195.506C311.642 194.846 311.279 194.274 310.817 193.79C310.355 193.306 309.805 192.921 309.167 192.635C308.529 192.349 307.847 192.206 307.121 192.206C306.395 192.206 305.713 192.349 305.075 192.635C304.459 192.921 303.909 193.306 303.425 193.79C302.963 194.274 302.589 194.846 302.303 195.506C302.039 196.144 301.907 196.837 301.907 197.585C301.907 198.333 302.039 199.037 302.303 199.697C302.589 200.335 302.963 200.907 303.425 201.413C303.909 201.897 304.459 202.282 305.075 202.568C305.713 202.854 306.395 202.997 307.121 202.997ZM320.031 188.411H324.156L328.776 199.73L333.33 188.411H337.455L327.489 213.194H323.298L326.664 204.944L320.031 188.411ZM373.18 206.363C370.672 206.363 368.527 205.868 366.745 204.878C364.963 203.888 363.588 202.502 362.62 200.72C361.674 198.916 361.201 196.793 361.201 194.351C361.201 191.931 361.674 189.83 362.62 188.048C363.588 186.244 364.963 184.847 366.745 183.857C368.527 182.867 370.672 182.372 373.18 182.372C374.72 182.372 376.194 182.614 377.602 183.098C379.01 183.582 380.165 184.242 381.067 185.078L379.483 189.137C378.493 188.367 377.492 187.806 376.48 187.454C375.49 187.08 374.445 186.893 373.345 186.893C371.123 186.893 369.44 187.542 368.296 188.84C367.174 190.116 366.613 191.953 366.613 194.351C366.613 196.749 367.174 198.597 368.296 199.895C369.44 201.193 371.123 201.842 373.345 201.842C374.445 201.842 375.49 201.666 376.48 201.314C377.492 200.94 378.493 200.368 379.483 199.598L381.067 203.657C380.165 204.471 379.01 205.131 377.602 205.637C376.194 206.121 374.72 206.363 373.18 206.363ZM381.328 206L392.02 182.735H396.145L406.837 206H401.689L399.511 200.951H388.654L386.509 206H381.328ZM394.033 188.18L390.37 196.958H397.828L394.099 188.18H394.033ZM416.874 206.363C415.048 206.363 413.321 206.132 411.693 205.67C410.087 205.208 408.745 204.581 407.667 203.789L409.152 199.763C410.186 200.489 411.363 201.061 412.683 201.479C414.025 201.897 415.422 202.106 416.874 202.106C418.458 202.106 419.591 201.864 420.273 201.38C420.977 200.874 421.329 200.247 421.329 199.499C421.329 198.861 421.087 198.355 420.603 197.981C420.119 197.607 419.272 197.288 418.062 197.024L414.333 196.232C410.175 195.352 408.096 193.196 408.096 189.764C408.096 188.29 408.492 187.003 409.284 185.903C410.076 184.781 411.176 183.912 412.584 183.296C414.014 182.68 415.664 182.372 417.534 182.372C419.14 182.372 420.647 182.603 422.055 183.065C423.463 183.527 424.629 184.176 425.553 185.012L424.068 188.774C422.264 187.344 420.075 186.629 417.501 186.629C416.115 186.629 415.037 186.904 414.267 187.454C413.519 187.982 413.145 188.675 413.145 189.533C413.145 190.171 413.376 190.688 413.838 191.084C414.3 191.48 415.103 191.799 416.247 192.041L419.976 192.833C424.244 193.757 426.378 195.847 426.378 199.103C426.378 200.555 425.982 201.831 425.19 202.931C424.42 204.009 423.32 204.856 421.89 205.472C420.482 206.066 418.81 206.363 416.874 206.363ZM438.014 206.363C436.188 206.363 434.461 206.132 432.833 205.67C431.227 205.208 429.885 204.581 428.807 203.789L430.292 199.763C431.326 200.489 432.503 201.061 433.823 201.479C435.165 201.897 436.562 202.106 438.014 202.106C439.598 202.106 440.731 201.864 441.413 201.38C442.117 200.874 442.469 200.247 442.469 199.499C442.469 198.861 442.227 198.355 441.743 197.981C441.259 197.607 440.412 197.288 439.202 197.024L435.473 196.232C431.315 195.352 429.236 193.196 429.236 189.764C429.236 188.29 429.632 187.003 430.424 185.903C431.216 184.781 432.316 183.912 433.724 183.296C435.154 182.68 436.804 182.372 438.674 182.372C440.28 182.372 441.787 182.603 443.195 183.065C444.603 183.527 445.769 184.176 446.693 185.012L445.208 188.774C443.404 187.344 441.215 186.629 438.641 186.629C437.255 186.629 436.177 186.904 435.407 187.454C434.659 187.982 434.285 188.675 434.285 189.533C434.285 190.171 434.516 190.688 434.978 191.084C435.44 191.48 436.243 191.799 437.387 192.041L441.116 192.833C445.384 193.757 447.518 195.847 447.518 199.103C447.518 200.555 447.122 201.831 446.33 202.931C445.56 204.009 444.46 204.856 443.03 205.472C441.622 206.066 439.95 206.363 438.014 206.363ZM461.63 206.363C459.342 206.363 457.329 205.868 455.591 204.878C453.875 203.866 452.533 202.469 451.565 200.687C450.619 198.883 450.146 196.771 450.146 194.351C450.146 191.931 450.619 189.83 451.565 188.048C452.533 186.244 453.875 184.847 455.591 183.857C457.307 182.867 459.32 182.372 461.63 182.372C463.94 182.372 465.953 182.867 467.669 183.857C469.407 184.847 470.749 186.244 471.695 188.048C472.663 189.83 473.147 191.92 473.147 194.318C473.147 196.738 472.663 198.85 471.695 200.654C470.749 202.458 469.407 203.866 467.669 204.878C465.953 205.868 463.94 206.363 461.63 206.363ZM461.63 202.007C463.566 202.007 465.073 201.336 466.151 199.994C467.251 198.63 467.801 196.749 467.801 194.351C467.801 191.931 467.262 190.061 466.184 188.741C465.106 187.399 463.588 186.728 461.63 186.728C459.716 186.728 458.209 187.399 457.109 188.741C456.031 190.061 455.492 191.931 455.492 194.351C455.492 196.749 456.031 198.63 457.109 199.994C458.209 201.336 459.716 202.007 461.63 202.007Z" fill="black"/>
</svg>
